#!OML:ASF H:\ManfredETheater\Project 1\Capture day 1\Session 1\subject.ASF
:FULLY-SPECIFIED
:DEGREES
107
root -2.8328 16.2913 -11.9761 -186.672 41.9127 -201.66
lowerback 13.0514 -2.29683 -8.18651
upperback 0.0769131 -4.27244 -1.54887
thorax -6.76837 -1.77998 3.73132
lowerneck -19.954 -0.766146 -3.41288
upperneck 11.0446 0.00340265 -0.516135
head 6.61062 -0.187357 0.381422
rclavicle 8.54774e-014 -3.97569e-014
rhumerus -68.8263 -1.36681 -88.908
rradius 102.62
rwrist -4.83961
rhand -27.632 14.2277
rfingers 7.12502
rthumb -1.03049 -15.7496
lclavicle 8.54774e-014 -3.97569e-014
lhumerus -48.1312 -7.22036 94.1155
lradius 112.298
lwrist 10.17
lhand -22.3377 -10.6951
lfingers 7.12502
lthumb 4.0827 19.2455
rfemur -49.066 -10.4928 29.983
rtibia 44.7941
rfoot -8.6517 -8.86468
rtoes 2.71177
lfemur 1.56986 -4.36457 -23.2393
ltibia 63.8766
lfoot 9.99556 -7.35799
ltoes -3.61806
108
root -2.59774 16.2553 -12.3646 -186.317 42.919 -200.293
lowerback 13.5544 -1.99461 -7.282
upperback 0.192729 -3.75921 -1.1225
thorax -7.0138 -1.55254 3.61862
lowerneck -19.7896 -0.789556 -3.29223
upperneck 10.8 -0.0468582 -0.659456
head 6.50519 -0.2146 0.310308
rclavicle 1.70955e-014 -3.02153e-014
rhumerus -67.606 -1.20939 -89.1233
rradius 101.909
rwrist -4.87864
rhand -27.491 14.1577
rfingers 7.12502
rthumb -0.89427 -15.8201
lclavicle 1.70955e-014 -3.02153e-014
lhumerus -48.4375 -6.7998 94.566
lradius 110.424
lwrist 10.0897
lhand -22.6083 -10.752
lfingers 7.12502
lthumb 3.82132 19.1935
rfemur -47.8093 -8.90941 30.4183
rtibia 47.0018
rfoot -9.71051 -10.7414
rtoes 7.17229
lfemur -0.0020114 -3.44993 -21.51
ltibia 67.5049
lfoot 8.98988 -7.25032
ltoes -3.34078
109
root -2.36464 16.2213 -12.7453 -185.779 43.9012 -198.833
lowerback 13.9805 -1.72751 -6.34682
upperback 0.312383 -3.26631 -0.71311
thorax -7.20436 -1.33771 3.46044
lowerneck -19.6782 -0.806229 -3.13746
upperneck 10.5694 -0.0997719 -0.772934
head 6.41285 -0.239452 0.243307
rclavicle -6.75868e-014 -1.59028e-014
rhumerus -66.1091 -0.94317 -89.454
rradius 100.981
rwrist -4.88959
rhand -27.393 14.0787
rfingers 7.12502
rthumb -0.799618 -15.8996
lclavicle -6.75868e-014 -1.59028e-014
lhumerus -48.6824 -6.32876 94.8793
lradius 108.431
lwrist 10.1794
lhand -22.9192 -10.7858
lfingers 7.12502
lthumb 3.52108 19.1648
rfemur -46.615 -7.35917 30.9374
rtibia 49.1487
rfoot -11.0253 -12.524
rtoes 9.52088
lfemur -1.85011 -2.55747 -19.6685
ltibia 71.0791
lfoot 7.77939 -7.17978
ltoes -3.11225
110
root -2.13242 16.1913 -13.1187 -185.098 44.7735 -197.403
lowerback 14.2643 -1.51495 -5.47146
upperback 0.424116 -2.83613 -0.346967
thorax -7.30873 -1.1539 3.28761
lowerneck -19.6181 -0.816114 -2.95552
upperneck 10.3558 -0.153436 -0.855093
head 6.33421 -0.261374 0.182095
rclavicle 1.43125e-014 -3.49861e-014
rhumerus -64.3482 -0.538991 -89.8925
rradius 99.8654
rwrist -4.85665
rhand -27.3287 13.9684
rfingers 7.12502
rthumb -0.7376 -16.0101
lclavicle 1.43125e-014 -3.49861e-014
lhumerus -48.8676 -5.82245 95.0483
lradius 106.329
lwrist 10.4087
lhand -23.2814 -10.8072
lfingers 7.12502
lthumb 3.17139 19.1489
rfemur -45.5047 -5.994 31.4722
rtibia 51.1078
rfoot -12.4967 -14.1816
rtoes 9.87558
lfemur -4.02939 -1.76045 -17.8594
ltibia 74.5184
lfoot 6.39824 -7.08042
ltoes -2.93887
